<?xml version="1.0" encoding="UTF-8"?>
<svg version="1.1" xmlns="http://www.w3.org/2000/svg" width="2000" height="2000">
<path d="M0 0 C660 0 1320 0 2000 0 C2000 660 2000 1320 2000 2000 C1340 2000 680 2000 0 2000 C0 1340 0 680 0 0 Z " fill="#000000" transform="translate(0,0)"/>
<path d="M0 0 C3.3125 0.625 3.3125 0.625 4.68920898 2.2043457 C5.14110596 2.91679443 5.59300293 3.62924316 6.05859375 4.36328125 C6.57945557 5.18441406 7.10031738 6.00554687 7.63696289 6.8515625 C10.74476493 11.99576054 13.73060573 17.20557215 16.6875 22.4375 C17.38897031 23.67272635 18.09080103 24.90774809 18.79296875 26.14257812 C20.24715568 28.70054996 21.69981005 31.25938267 23.15136719 33.81884766 C26.52393836 39.76249904 29.91953899 45.69297178 33.3125 51.625 C34.64607067 53.95819774 35.97928479 56.29159913 37.3125 58.625 C37.97916009 59.79167042 38.64582676 60.95833709 39.3125 62.125 C72.3125 119.875 105.3125 177.625 380.31233215 658.87471008 C380.97955393 660.04234564 381.64678009 661.2099787 382.31401062 662.37760925 C383.97221998 665.2794314 385.63033834 668.18130545 387.28833008 671.08325195 C390.38899749 676.51008859 393.49032486 681.93654345 396.59420776 687.36154175 C398.04705358 689.90094241 399.49949359 692.44057507 400.9519043 694.98022461 C401.63887689 696.18118647 402.32604435 697.38203688 403.01342773 698.58276367 C404.56590884 701.29469756 406.11476314 704.00843748 407.65380859 706.72802734 C408.71501487 708.58146769 409.79931278 710.42199437 410.91259766 712.24462891 C411.61521729 713.41711182 411.61521729 713.41711182 412.33203125 714.61328125 C412.94655151 715.60581909 412.94655151 715.60581909 413.57348633 716.6184082 C414.58569742 719.36679372 414.20169995 720.85228876 413.3125 723.625 C411.95239258 725.98657227 411.95239258 725.98657227 410.20703125 728.44140625 C409.56040527 729.36010498 408.9137793 730.27880371 408.24755859 731.2253418 C407.54711426 732.202854 406.84666992 733.18036621 406.125 734.1875 C405.40393066 735.2081958 404.68286133 736.2288916 403.93994141 737.28051758 C402.45258404 739.38556724 400.96200371 741.48834324 399.46826172 743.58886719 C396.35047403 747.97989863 393.27004498 752.39670027 390.1875 756.8125 C389.0394231 758.45207547 387.89098607 760.09139884 386.7421875 761.73046875 C383.26381431 766.69404579 379.78798462 771.65940013 376.3125 776.625 C375.14584425 778.29167431 373.97917759 779.95834098 372.8125 781.625 C372.235 782.45 371.6575 783.275 371.0625 784.125 C313.3125 866.625 255.5625 949.125 183.8125 1051.625 C183.23483887 1052.4502417 182.65717773 1053.2754834 182.06201172 1054.12573242 C180.89701636 1055.78998828 179.7319774 1057.45421361 178.56689453 1059.1184082 C175.62429589 1063.32170923 172.68249096 1067.52556181 169.7421875 1071.73046875 C163.79555871 1080.23310465 157.83571098 1088.72590706 151.84667969 1097.19873047 C146.23664591 1105.13979808 140.66639765 1113.10865319 135.09472656 1121.07666016 C132.16873267 1125.2604306 129.2405169 1129.44264524 126.3125 1133.625 C125.14582241 1135.29165902 123.97915575 1136.95832569 122.8125 1138.625 C49.3125 1243.625 49.3125 1243.625 -24.1875 1348.625 C-24.7654834 1349.4507251 -25.3434668 1350.2764502 -25.93896484 1351.12719727 C-27.10061751 1352.78663156 -28.26240045 1354.44597466 -29.42431641 1356.10522461 C-32.41879575 1360.38179158 -35.410698 1364.66012736 -38.3984375 1368.94140625 C-39.01203125 1369.81990234 -39.625625 1370.69839844 -40.2578125 1371.60351562 C-41.41231978 1373.25656014 -42.56604172 1374.91015362 -43.71875 1376.56445312 C-44.76686832 1378.06447754 -45.82613471 1379.55679801 -46.89841338 1381.03964787 C-48.73380632 1383.61909995 -48.73380632 1383.61909995 -50.32638897 1386.44675801 C-55.00614861 1393.99625168 -55.00614861 1393.99625168 -59.40525279 1395.64131492 C-62.70026526 1396.03173233 -65.84046243 1396.06914458 -69.15788746 1395.98969936 C-70.40886246 1396.00359004 -71.65983745 1396.01748071 -72.94872078 1396.03179231 C-76.42113322 1396.06879421 -79.8900588 1396.03737218 -83.36228191 1395.99473357 C-87.13919019 1395.96050005 -90.91568622 1395.99019139 -94.6926133 1396.01174933 C-101.31180472 1396.04070752 -107.9299449 1396.02878235 -114.54907227 1395.99009323 C-124.39138353 1395.93272334 -134.23295505 1395.93834212 -144.07538029 1395.95672038 C-160.63237461 1395.98576962 -177.18892382 1395.96304422 -193.74584389 1395.91029167 C-210.14248562 1395.85810248 -226.53893155 1395.82691323 -242.93565941 1395.82440376 C-243.95502535 1395.82422813 -244.97439129 1395.82405249 -246.0246471 1395.82387153 C-250.16235606 1395.8232239 -254.300065 1395.82272797 -258.43777401 1395.82243293 C-296.15176023 1395.81967862 -333.86547205 1395.76352238 -371.5793457 1395.67456055 C-407.20209308 1395.59053962 -442.82466311 1395.54095683 -478.44750977 1395.53100586 C-480.09409539 1395.53053406 -480.09409539 1395.53053406 -481.77394538 1395.53005272 C-485.0948246 1395.52910266 -488.41570383 1395.52816487 -491.73658305 1395.5272302 C-496.14710606 1395.52598696 -500.55762905 1395.5247278 -504.96815205 1395.52345943 C-506.05638785 1395.52315533 -507.14462366 1395.52285122 -508.2658363 1395.5225379 C-543.26551003 1395.51244433 -578.26515042 1395.47091982 -613.26479251 1395.4247054 C-623.51884683 1395.41134508 -633.77289802 1395.3999687 -644.0269587 1395.39282298 C-645.04370354 1395.39210882 -646.06044837 1395.39139466 -647.10800365 1395.39065886 C-648.1227352 1395.38994637 -649.13746675 1395.38923387 -650.18294773 1395.38849979 C-669.69671352 1395.37473326 -689.21036952 1395.34825507 -708.72406778 1395.29365068 C-717.64581434 1395.26898717 -726.56746255 1395.25046794 -735.48924637 1395.24986267 C-742.88084282 1395.24935763 -750.27225616 1395.23578058 -757.66378699 1395.20389309 C-761.3891167 1395.18821108 -765.11416904 1395.17895065 -768.83952955 1395.18699931 C-772.84207439 1395.19547187 -776.84384589 1395.17337655 -780.84631824 1395.14791775 C-782.60226388 1395.15896335 -782.60226388 1395.15896335 -784.39368317 1395.17023209 C-785.4533703 1395.15842444 -786.51305744 1395.14661679 -787.60485631 1395.13445133 C-788.9790904 1395.13169551 -788.9790904 1395.13169551 -790.38108679 1395.12888401 C-792.6875 1394.625 -792.6875 1394.625 -794.51427473 1392.77692089 C-796.19584898 1389.69259017 -795.61736289 1387.95565779 -794.6875 1384.625 C-793.51098633 1382.13745117 -793.51098633 1382.13745117 -792.01953125 1379.66796875 C-791.46330078 1378.73339844 -790.90707031 1377.79882812 -790.33398438 1376.8359375 C-789.72876953 1375.83820313 -789.12355469 1374.84046875 -788.5 1373.8125 C-787.21284601 1371.65092793 -785.92775053 1369.48812898 -784.64453125 1367.32421875 C-783.98533691 1366.21481934 -783.32614258 1365.10541992 -782.64697266 1363.96240234 C-779.57520606 1358.73052478 -776.63069828 1353.42993645 -773.6875 1348.125 C-768.55252291 1338.89495942 -763.28535621 1329.75259886 -757.9375 1320.64453125 C-753.76506041 1313.5197181 -749.70254756 1306.33953859 -745.6875 1299.125 C-740.55118611 1289.89568598 -735.28537465 1280.75263027 -729.9375 1271.64453125 C-725.76506041 1264.5197181 -721.70254756 1257.33953859 -717.6875 1250.125 C-712.55118611 1240.89568598 -707.28537465 1231.75263027 -701.9375 1222.64453125 C-697.76506041 1215.5197181 -693.70254756 1208.33953859 -689.6875 1201.125 C-684.55118611 1191.89568598 -679.28537465 1182.75263027 -673.9375 1173.64453125 C-669.76506041 1166.5197181 -665.70254756 1159.33953859 -661.6875 1152.125 C-656.55118611 1142.89568598 -651.28537465 1133.75263027 -645.9375 1124.64453125 C-641.76506041 1117.5197181 -637.70254756 1110.33953859 -633.6875 1103.125 C-628.55118611 1093.89568598 -623.28537465 1084.75263027 -617.9375 1075.64453125 C-613.76506041 1068.5197181 -609.70254756 1061.33953859 -605.6875 1054.125 C-600.55118611 1044.89568598 -595.28537465 1035.75263027 -589.9375 1026.64453125 C-585.76506041 1019.5197181 -581.70254756 1012.33953859 -577.6875 1005.125 C-572.55118611 995.89568598 -567.28537465 986.75263027 -561.9375 977.64453125 C-557.76506041 970.5197181 -553.70254756 963.33953859 -549.6875 956.125 C-544.55118611 946.89568598 -539.28537465 937.75263027 -533.9375 928.64453125 C-529.76506041 921.5197181 -525.70254756 914.33953859 -521.6875 907.125 C-516.55118611 897.89568598 -511.28537465 888.75263027 -505.9375 879.64453125 C-501.76506041 872.5197181 -497.70254756 865.33953859 -493.6875 858.125 C-488.55118611 848.89568598 -483.28537465 839.75263027 -477.9375 830.64453125 C-473.76506041 823.5197181 -469.70254756 816.33953859 -465.6875 809.125 C-460.55118611 799.89568598 -455.28537465 790.75263027 -449.9375 781.64453125 C-445.76506041 774.5197181 -441.70254756 767.33953859 -437.6875 760.125 C-432.55118611 750.89568598 -427.28537465 741.75263027 -421.9375 732.64453125 C-417.76506041 725.5197181 -413.70254756 718.33953859 -409.6875 711.125 C-404.55118611 701.89568598 -399.28537465 692.75263027 -393.9375 683.64453125 C-389.76506041 676.5197181 -385.70254756 669.33953859 -381.6875 662.125 C-376.55118611 652.89568598 -371.28537465 643.75263027 -365.9375 634.64453125 C-361.76506041 627.5197181 -357.70254756 620.33953859 -353.6875 613.125 C-348.55118611 603.89568598 -343.28537465 594.75263027 -337.9375 585.64453125 C-333.76506041 578.5197181 -329.70254756 571.33953859 -325.6875 564.125 C-320.55118611 554.89568598 -315.28537465 545.75263027 -309.9375 536.64453125 C-305.76506041 529.5197181 -301.70254756 522.33953859 -297.6875 515.125 C-292.55118611 505.89568598 -287.28537465 496.75263027 -281.9375 487.64453125 C-277.76506041 480.5197181 -273.70254756 473.33953859 -269.6875 466.125 C-264.55118611 456.89568598 -259.28537465 447.75263027 -253.9375 438.64453125 C-249.76506041 431.5197181 -245.70254756 424.33953859 -241.6875 417.125 C-236.55118611 407.89568598 -231.28537465 398.75263027 -225.9375 389.64453125 C-221.76506041 382.5197181 -217.70254756 375.33953859 -213.6875 368.125 C-208.55118611 358.89568598 -203.28537465 349.75263027 -197.9375 340.64453125 C-193.76506041 333.5197181 -189.70254756 326.33953859 -185.6875 319.125 C-180.55118611 309.89568598 -175.28537465 300.75263027 -169.9375 291.64453125 C-165.76506041 284.5197181 -161.70254756 277.33953859 -157.6875 270.125 C-152.55118611 260.89568598 -147.28537465 251.75263027 -141.9375 242.64453125 C-137.76506041 235.5197181 -133.70254756 228.33953859 -129.6875 221.125 C-124.55118611 211.89568598 -119.28537465 202.75263027 -113.9375 193.64453125 C-109.76506041 186.5197181 -105.70254756 179.33953859 -101.6875 172.125 C-96.55118611 162.89568598 -91.28537465 153.75263027 -85.9375 144.64453125 C-81.76506041 137.5197181 -77.70254756 130.33953859 -73.6875 123.125 C-68.55118611 113.89568598 -63.28537465 104.75263027 -57.9375 95.64453125 C-53.76506041 88.5197181 -49.70254756 81.33953859 -45.6875 74.125 C-40.55645831 64.90515946 -35.29847221 55.77000562 -29.95288086 46.6730957 C-25.03031072 38.27243484 -20.26624672 29.7879862 -15.56835938 21.25976562 C-4.34579572 1.01065017 -4.34579572 1.01065017 0 0 Z " fill="#FEFEFE" transform="translate(999.6875,265.375)"/>
<path d="M0 0 C3.95137256 1.31712419 4.26879158 2.78464787 6.22265625 6.40625 C6.83955322 7.53538818 7.4564502 8.66452637 8.09204102 9.82788086 C8.74919181 11.05174283 9.40600528 12.27578598 10.0625 13.5 C11.40201579 15.97236576 12.74723802 18.44159507 14.09375 20.91015625 C14.42609146 21.52129776 14.75843292 22.13243927 15.10084534 22.76210022 C17.07585524 26.37536887 19.12531904 29.9255133 21.28125 33.43359375 C21.99462524 34.59568359 21.99462524 34.59568359 22.72241211 35.78125 C23.59574918 37.18648101 24.4814552 38.58412295 25.38110352 39.97265625 C26.53515625 41.83984375 26.53515625 41.83984375 28 45 C26.90046432 47.87226379 25.18951527 50.31649117 23.453125 52.84375 C22.94531494 53.58488037 22.43750488 54.32601074 21.91430664 55.08959961 C21.36508545 55.88503174 20.81586426 56.68046387 20.25 57.5 C19.67435303 58.33732666 19.09870605 59.17465332 18.50561523 60.03735352 C12.64055227 68.55314909 6.70860531 77.02202739 0.76611328 85.48388672 C-2.16021864 89.65291862 -5.07978099 93.8266852 -8 98 C-9.16663389 99.66668961 -10.33330057 101.33335627 -11.5 103 C-12.0775 103.825 -12.655 104.65 -13.25 105.5 C-15 108 -16.75 110.5 -18.5 113 C-19.07766113 113.8252417 -19.65532227 114.6504834 -20.25048828 115.50073242 C-21.41548364 117.16498828 -22.5805226 118.82921361 -23.74560547 120.4934082 C-26.68820411 124.69670923 -29.63000904 128.90056181 -32.5703125 133.10546875 C-38.51694129 141.60810465 -44.47678902 150.10090706 -50.46582031 158.57373047 C-56.07585409 166.51479808 -61.64610235 174.48365319 -67.21777344 182.45166016 C-70.14376733 186.6354306 -73.0719831 190.81764524 -76 195 C-77.16667759 196.66665902 -78.33334425 198.33332569 -79.5 200 C-137.25 282.5 -195 365 -352.5 590 C-353.0784668 590.8264502 -353.65693359 591.65290039 -354.25292969 592.50439453 C-355.40956813 594.15659662 -356.56646551 595.80861748 -357.72363281 597.46044922 C-360.7959741 601.84690599 -363.86262334 606.23721448 -366.921875 610.6328125 C-367.56253906 611.55191406 -368.20320313 612.47101562 -368.86328125 613.41796875 C-370.09669913 615.18765528 -371.32853756 616.95844396 -372.55859375 618.73046875 C-373.11160156 619.52324219 -373.66460938 620.31601563 -374.234375 621.1328125 C-374.72131836 621.83293457 -375.20826172 622.53305664 -375.70996094 623.25439453 C-377 625 -377 625 -379 627 C-381.4803772 627.24050903 -381.4803772 627.24050903 -384.64306641 627.22705078 C-385.82413971 627.22689972 -387.00521301 627.22674866 -388.22207642 627.22659302 C-389.50230682 627.21627045 -390.78253723 627.20594788 -392.1015625 627.1953125 C-394.06166763 627.19106766 -394.06166763 627.19106766 -396.06137085 627.18673706 C-399.53682081 627.17909776 -403.01210383 627.1594469 -406.48748779 627.1373291 C-410.03330222 627.11687696 -413.5791436 627.10773671 -417.125 627.09765625 C-424.08340195 627.07620116 -431.04169296 627.04206173 -438 627 C-437.22140667 625.57358706 -436.43970925 624.14886823 -435.65673828 622.72485352 C-435.22177032 621.93127945 -434.78680237 621.13770538 -434.33865356 620.32008362 C-432.4231166 617.00017617 -430.19359383 613.9830135 -427.875 610.9375 C-424.03711668 605.79888155 -420.30098412 600.61143487 -416.6875 595.3125 C-412.55907994 589.26436833 -408.39113199 583.24614385 -404.1875 577.25 C-403.59864014 576.40993408 -403.00978027 575.56986816 -402.40307617 574.7043457 C-401.20167417 572.99092421 -400.0000945 571.27762729 -398.79833984 569.56445312 C-395.86275013 565.37826872 -392.93159134 561.18898491 -390 557 C-388.83594837 555.33723197 -387.67188586 553.67447157 -386.5078125 552.01171875 C-384.14751876 548.63996469 -381.7882509 545.2674959 -379.4296875 541.89453125 C-373.48305871 533.39189535 -367.52321098 524.89909294 -361.53417969 516.42626953 C-355.92414591 508.48520192 -350.35389765 500.51634681 -344.78222656 492.54833984 C-341.85623267 488.3645694 -338.9280169 484.18235476 -336 480 C-334.83332241 478.33334098 -333.66665575 476.66667431 -332.5 475 C-245.875 351.25 -245.875 351.25 -73.5 105 C-72.92233887 104.1747583 -72.34467773 103.3495166 -71.74951172 102.49926758 C-70.58451636 100.83501172 -69.4194774 99.17078639 -68.25439453 97.5065918 C-65.31179589 93.30329077 -62.36999096 89.09943819 -59.4296875 84.89453125 C-53.48305871 76.39189535 -47.52321098 67.89909294 -41.53417969 59.42626953 C-35.93141458 51.4954908 -30.36854348 43.53685943 -24.80419922 35.57910156 C-22.97616749 32.96593144 -21.14653548 30.353889 -19.31640625 27.7421875 C-12.85022648 18.51354657 -6.39831314 9.27586138 0 0 Z " fill="#FDFDFD" transform="translate(1440,1033)"/>
</svg>
