<?xml version="1.0" encoding="UTF-8"?>
<svg version="1.1" xmlns="http://www.w3.org/2000/svg" width="2000" height="2000">
<path d="M0 0 C660 0 1320 0 2000 0 C2000 660 2000 1320 2000 2000 C1340 2000 680 2000 0 2000 C0 1340 0 680 0 0 Z " fill="#FCFCFC" transform="translate(0,0)"/>
<path d="M0 0 C1.32 0 2.64 0 4 0 C10.17340259 10.77609762 16.32919377 21.56184803 22.4375 32.375 C22.97729492 33.33035645 23.51708984 34.28571289 24.07324219 35.27001953 C26.79270308 40.08515994 29.50818608 44.90250197 32.21875 49.72265625 C37.69238481 59.44598686 43.22595454 69.12739966 48.875 78.75 C54.57407 88.46347423 60.08002742 98.27426032 65.52807617 108.13037109 C70.78646967 117.63890549 76.15208954 127.08175787 81.56591797 136.50244141 C83.96759479 140.68513699 86.35824357 144.87412653 88.75 149.0625 C92.11650706 154.95556278 95.4847475 160.84762775 98.85546875 166.73828125 C100.21634737 169.11707227 101.57700238 171.49599106 102.9375 173.875 C103.27872894 174.47166473 103.61995789 175.06832947 103.9715271 175.68307495 C108.52656587 183.64985162 113.05685206 191.63016266 117.5625 199.625 C122.80533527 208.92496564 128.12346551 218.1800058 133.46923828 227.42114258 C136.97250635 233.47847937 140.45538832 239.54652906 143.9128418 245.63012695 C147.60386701 252.12384897 151.31158628 258.59015362 155.25 264.9375 C155.86230469 265.92878906 156.47460938 266.92007812 157.10546875 267.94140625 C158.10749947 269.55911769 159.11112013 271.1758961 160.12744141 272.78466797 C161.29127064 274.63720514 162.42849647 276.50409261 163.5625 278.375 C164.24441406 279.47585938 164.92632813 280.57671875 165.62890625 281.7109375 C167.33722728 285.80896116 167.23132019 287.74935062 166 292 C164.60102158 294.50385138 162.90895885 296.69686224 161.125 298.9375 C160.11109702 300.26395829 159.09944361 301.59213857 158.08984375 302.921875 C157.57276855 303.59798828 157.05569336 304.27410156 156.52294922 304.97070312 C154.14344656 308.14133892 151.91387487 311.40834961 149.6875 314.6875 C140.77686755 327.74676837 131.66005791 340.66282426 122.53491211 353.57275391 C116.92453627 361.51407758 111.35413047 369.48332024 105.78222656 377.45166016 C102.85623267 381.6354306 99.9280169 385.81764524 97 390 C95.83332241 391.66665902 94.66665575 393.33332569 93.5 395 C76 420 76 420 58.5 445 C57.92233887 445.8252417 57.34467773 446.6504834 56.74951172 447.50073242 C55.58451636 449.16498828 54.4194774 450.82921361 53.25439453 452.4934082 C50.31179589 456.69670923 47.36999096 460.90056181 44.4296875 465.10546875 C38.48457309 473.60593935 32.52680536 482.0969828 26.53857422 490.56713867 C22.07480585 496.88478108 17.6400437 503.22254616 13.20874023 509.56298828 C10.47388582 513.47400688 7.73455819 517.38145962 4.97265625 521.2734375 C-1.50008861 530.39510514 -7.84541942 539.59452189 -14.10131836 548.86669922 C-14.70983643 549.76533691 -15.31835449 550.66397461 -15.9453125 551.58984375 C-16.48687988 552.39284912 -17.02844727 553.19585449 -17.58642578 554.02319336 C-19 556 -19 556 -21 558 C-23.13238293 558.24954766 -23.13238293 558.24954766 -25.8348093 558.24888897 C-26.862293 558.25348777 -27.8897767 558.25808656 -28.94839627 558.26282471 C-30.08582726 558.25768115 -31.22325826 558.25253759 -32.39515686 558.24723816 C-33.59672454 558.24965257 -34.79829222 558.25206699 -36.03627104 558.25455457 C-39.38196711 558.25923113 -42.72743575 558.25488272 -46.07311118 558.24679029 C-49.6770865 558.24023036 -53.281048 558.24515801 -56.88502502 558.24867249 C-63.94906866 558.25372234 -71.01306561 558.24806314 -78.07710344 558.23882218 C-86.29537461 558.22845627 -94.51363559 558.22850789 -102.73191207 558.22899476 C-117.39005087 558.22949577 -132.04816789 558.22032323 -146.70629883 558.20581055 C-160.94556068 558.19171978 -175.18480335 558.18463985 -189.42407227 558.18530273 C-190.30115812 558.18534269 -191.17824397 558.18538265 -192.08190817 558.18542381 C-192.95744443 558.18546417 -193.83298069 558.18550452 -194.73504835 558.1855461 C-210.9239847 558.18623514 -227.11291286 558.1803508 -243.30184655 558.17139288 C-249.03716435 558.16837079 -254.77248064 558.16731265 -260.50779915 558.16686058 C-267.4916872 558.16617992 -274.47556145 558.16173583 -281.45944364 558.15252777 C-285.02608055 558.14789651 -288.59269977 558.14486914 -292.1593399 558.14612198 C-296.01684953 558.14741133 -299.87432327 558.14099555 -303.73182678 558.13371277 C-305.44131936 558.13603567 -305.44131936 558.13603567 -307.18534714 558.1384055 C-308.21022309 558.13518106 -309.23509904 558.13195661 -310.29103184 558.12863445 C-311.62848936 558.12757782 -311.62848936 558.12757782 -312.99296623 558.12649983 C-315 558 -315 558 -316 557 C-316.72107898 552.10567643 -314.50311752 548.92220297 -312 544.9375 C-311.07333038 543.41278746 -310.14902067 541.88663916 -309.2265625 540.359375 C-308.71254883 539.51181641 -308.19853516 538.66425781 -307.66894531 537.79101562 C-304.83825857 533.0571931 -302.11586609 528.26175 -299.38818359 523.4680481 C-298.36282254 521.66609957 -297.33592831 519.86503301 -296.30859375 518.06420898 C-294.9041266 515.60217028 -293.50018942 513.1398307 -292.09667969 510.67724609 C-289.06676611 505.36199922 -286.03021236 500.05054824 -282.99395752 494.73892212 C-281.32901398 491.82611439 -279.66453102 488.91304348 -278 486 C-277.33333552 484.83333208 -276.66666886 483.66666541 -276 482.5 C-275.505 481.63375 -275.505 481.63375 -275 480.75 C-274 479 -273 477.25 -272 475.5 C-271.50501511 474.63377266 -271.50501511 474.63377266 -271.00003052 473.75004578 C-270.33327089 472.58322151 -269.6665025 471.41640226 -268.99972534 470.24958801 C-267.33440912 467.33537354 -265.66924463 464.42107258 -264.00439453 461.5065918 C-260.98847429 456.22727897 -257.9714176 450.94863158 -254.94876099 445.673172 C-253.25676245 442.72004096 -251.56564795 439.76640443 -249.875 436.8125 C-249.54377136 436.23382172 -249.21254272 435.65514343 -248.87127686 435.05892944 C-244.07252283 426.67100771 -239.33190723 418.25224974 -234.625 409.8125 C-230.48630433 402.39380202 -226.29086391 395.01982875 -221.95410156 387.71533203 C-216.23607779 378.06244723 -210.71777397 368.29325308 -205.1630249 358.54586792 C-202.74945275 354.31135607 -200.32964961 350.08045673 -197.90625 345.8515625 C-191.42384881 334.53577829 -184.97709196 323.20215861 -178.625 311.8125 C-174.48630433 304.39380202 -170.29086391 297.01982875 -165.95410156 289.71533203 C-160.23607779 280.06244723 -154.71777397 270.29325308 -149.1630249 260.54586792 C-146.74945275 256.31135607 -144.32964961 252.08045673 -141.90625 247.8515625 C-135.42384881 236.53577829 -128.97709196 225.20215861 -122.625 213.8125 C-118.48630433 206.39380202 -114.29086391 199.01982875 -109.95410156 191.71533203 C-104.23607779 182.06244723 -98.71777397 172.29325308 -93.1630249 162.54586792 C-90.74945275 158.31135607 -88.32964961 154.08045673 -85.90625 149.8515625 C-79.42384881 138.53577829 -72.97709196 127.20215861 -66.625 115.8125 C-62.48630433 108.39380202 -58.29086391 101.01982875 -53.95410156 93.71533203 C-48.23780178 84.06535758 -42.72098033 74.29918337 -37.16755676 64.55493164 C-34.739396 60.29474727 -32.30668947 56.03718763 -29.87109375 51.78125 C-28.51815749 49.41670767 -27.16529018 47.05212591 -25.8125 44.6875 C-25.31654831 43.82063065 -25.31654831 43.82063065 -24.81057739 42.93624878 C-19.58388417 33.79798439 -14.39214951 24.64043653 -9.24731445 15.45581055 C-7.8451109 12.96251519 -6.4242323 10.48075557 -5 8 C-4.56091309 7.20400391 -4.12182617 6.40800781 -3.66943359 5.58789062 C-3.2461377 4.85248047 -2.8228418 4.11707031 -2.38671875 3.359375 C-2.02151123 2.70936523 -1.65630371 2.05935547 -1.2800293 1.38964844 C-0.85761963 0.93106445 -0.43520996 0.47248047 0 0 Z " fill="#000000" transform="translate(418,589)"/>
<path d="M0 0 C10.23 0 20.46 0 31 0 C31 97.35 31 194.7 31 295 C20.77 295 10.54 295 0 295 C-0.33 285.43 -0.66 275.86 -1 266 C-2.69125 267.794375 -4.3825 269.58875 -6.125 271.4375 C-22.31855597 287.99171424 -44.56954631 297.64167632 -67.6484375 298.30078125 C-86.66982906 298.46659662 -101.87723729 296.41784278 -119 288 C-120.02351563 287.50242187 -121.04703125 287.00484375 -122.1015625 286.4921875 C-128.7319448 283.07427212 -134.34840648 278.84422302 -140 274 C-140.7734375 273.360625 -141.546875 272.72125 -142.34375 272.0625 C-161.34856945 255.92142047 -173.93428698 230.82479684 -176 206 C-177.89557661 175.18963402 -170.21907264 146.99798932 -149.67285156 123.48095703 C-133.52061879 105.51060067 -109.00667048 91.56124478 -84.63623047 89.75 C-80.96280547 89.59095576 -77.30175713 89.51942676 -73.625 89.5 C-72.47281982 89.49355469 -71.32063965 89.48710938 -70.13354492 89.48046875 C-42.73546265 89.88883859 -19.97664182 103.02335818 -1 122 C-0.505 61.61 -0.505 61.61 0 0 Z " fill="#020202" transform="translate(1471,848)"/>
<path d="M0 0 C14.77978794 -0.40423352 28.11654554 2.18618471 41.59765625 8.125 C42.520625 8.516875 43.44359375 8.90875 44.39453125 9.3125 C59.70937861 16.33586949 72.40176775 28.54052149 80.59765625 43.125 C81.28988281 44.34316406 81.28988281 44.34316406 81.99609375 45.5859375 C88.00729314 56.84327453 89.67544714 67.21407243 90.59765625 80.125 C79.70765625 80.125 68.81765625 80.125 57.59765625 80.125 C56.60765625 75.175 55.61765625 70.225 54.59765625 65.125 C48.55320878 51.15561028 40.40763555 41.78558495 25.99047852 36.03442383 C17.53438991 32.82057523 10.04159249 31.5721998 0.97265625 31.625 C-0.74159546 31.63358032 -0.74159546 31.63358032 -2.49047852 31.64233398 C-17.05232421 31.94795678 -30.30714513 35.71623146 -41.265625 45.84765625 C-50.14697988 55.52238278 -52.02046352 67.19219469 -51.7109375 79.859375 C-51.16852671 89.98737728 -47.26169369 97.79699883 -40.40234375 105.125 C-39.85191406 105.72828125 -39.30148437 106.3315625 -38.734375 106.953125 C-24.56027679 120.84561861 -0.7218216 126.56020566 17.49609375 132.890625 C46.48505932 142.96519001 74.61360766 153.12538814 89.20703125 182.34765625 C93.83209437 193.10772956 94.93885159 202.21321212 94.91015625 213.875 C94.92626953 215.16921875 94.94238281 216.4634375 94.95898438 217.796875 C94.96467591 229.08888613 93.19970596 239.12843787 87.97265625 249.1875 C87.45106934 250.20191162 87.45106934 250.20191162 86.91894531 251.23681641 C76.24033148 271.29374899 57.77601364 283.34792563 36.59765625 290.125 C35.68757812 290.434375 34.7775 290.74375 33.83984375 291.0625 C8.14382952 299.43988395 -24.31827696 295.2921486 -48.52734375 284 C-69.7681957 272.79895848 -83.2946128 255.13530794 -90.33984375 232.375 C-92.81840192 224.0857889 -93.40234375 218.27599146 -93.40234375 209.125 C-82.51234375 209.125 -71.62234375 209.125 -60.40234375 209.125 C-59.41234375 215.56 -59.41234375 215.56 -58.40234375 222.125 C-53.98623546 236.84536098 -46.39364565 247.90545315 -32.82543945 255.37426758 C-13.77614445 265.26336994 9.01815011 266.08567739 29.375 259.66796875 C40.87105451 255.65735775 50.00720451 249.06102398 55.91015625 238.25 C61.05417395 226.63595114 62.90290638 213.71269849 58.64453125 201.5 C50.44054885 182.88798023 35.44296204 174.28334654 17.24139404 167.20922852 C12.42554833 165.43949539 7.56759964 163.79577399 2.70272827 162.16653442 C-10.08262033 157.87201386 -22.78024224 153.41995066 -35.21484375 148.1875 C-36.70359009 147.57007935 -36.70359009 147.57007935 -38.22241211 146.94018555 C-49.38744741 142.1273209 -58.74360736 135.62499289 -67.40234375 127.125 C-68.11390625 126.43792969 -68.82546875 125.75085938 -69.55859375 125.04296875 C-84.03649153 110.03607086 -87.00331711 89.92475922 -86.67578125 69.9140625 C-85.94702695 51.6807742 -75.79894781 34.71742195 -62.71484375 22.5 C-44.15191055 7.20208865 -23.86274954 1.241639 0 0 Z " fill="#010101" transform="translate(774.40234375,851.875)"/>
<path d="M0 0 C1.17820312 0.52078125 2.35640625 1.0415625 3.5703125 1.578125 C10.72970468 4.88515912 17.10969844 8.74712586 23 14 C23.61230469 14.54269531 24.22460938 15.08539062 24.85546875 15.64453125 C38.17994825 28.20425034 46.57010756 46.58567398 47.2734375 64.7734375 C47.74887528 86.72835637 44.04110985 103.5772616 30 121 C29.11441406 122.18335938 29.11441406 122.18335938 28.2109375 123.390625 C19.65643569 133.48675082 8.27323414 139.61670209 -4 144 C-4.98226563 144.35964844 -5.96453125 144.71929688 -6.9765625 145.08984375 C-24.34880196 150.39938736 -44.03879924 147.35838118 -60 139.1875 C-76.68519549 129.19682398 -87.58076202 115.83951603 -95 98 C-95.33386719 97.27554687 -95.66773438 96.55109375 -96.01171875 95.8046875 C-102.85598075 76.38105069 -100.11338122 54.11814974 -91.4375 35.875 C-81.96702455 17.23155094 -66.2438572 5.20598647 -46.953125 -2.1640625 C-32.57564889 -6.23387717 -13.71065576 -6.18252382 0 0 Z " fill="#FCFCFC" transform="translate(1426,971)"/>
<path d="M0 0 C10.23 0 20.46 0 31 0 C31.33 60.39 31.66 120.78 32 183 C48.37235243 166.84835546 48.37235243 166.84835546 64 150 C65.95113913 147.9848891 67.90719932 145.99635982 69.90625 144.03125 C70.43464478 143.50664185 70.96303955 142.98203369 71.50744629 142.44152832 C73.72619584 140.23883885 75.95098773 138.04229163 78.17529297 135.84521484 C88.67120287 125.53742818 88.67120287 125.53742818 98.05664062 114.23242188 C112.63381277 94.82523881 112.63381277 94.82523881 123.88623047 92.94580078 C135.21231026 91.73316434 146.71899175 92.71933273 158 94 C152.15360434 101.12560702 145.5769716 107.48991988 139.02514648 113.9543457 C137.5158987 115.44525571 136.00986342 116.93936107 134.50390625 118.43359375 C133.61517822 119.31072021 132.7264502 120.18784668 131.81079102 121.09155273 C129.68142307 123.2448531 127.69176864 125.48822729 125.71655273 127.78344727 C121.69882247 132.41634546 117.38843091 136.71955069 113.03125 141.03125 C111.77254089 142.28427917 111.77254089 142.28427917 110.48840332 143.56262207 C106.9314548 147.10336129 103.3685388 150.63807324 99.80615234 154.17333984 C97.19159836 156.7697206 94.58011816 159.36916566 91.96875 161.96875 C91.17376099 162.75544067 90.37877197 163.54213135 89.55969238 164.35266113 C85.37375288 168.52035155 81.35424878 172.76369789 77.51768494 177.25622559 C75.1594363 179.96578244 72.62416353 182.48439681 70.0625 185 C69.56943359 185.48855469 69.07636719 185.97710938 68.56835938 186.48046875 C67.38126771 187.65603525 66.19099502 188.82838826 65 190 C66.53392788 193.65464986 68.7262778 195.94394 71.54296875 198.703125 C72.45240234 199.60160156 73.36183594 200.50007813 74.29882812 201.42578125 C75.26134531 202.36756931 76.22423819 203.30897355 77.1875 204.25 C79.05842513 206.08606317 80.92695954 207.92456595 82.79296875 209.765625 C83.6233667 210.57805664 84.45376465 211.39048828 85.30932617 212.22753906 C87.31784662 214.29711153 89.19120019 216.36922735 91.05981445 218.55761719 C95.62717022 223.82216889 100.58334076 228.6952317 105.5267334 233.60189819 C107.287525 235.34974922 109.04501864 237.10085972 110.80175781 238.8527832 C114.53168125 242.57136351 118.26553437 246.28598204 122 250 C126.33273773 254.30901429 130.66378153 258.61970377 134.99060059 262.93466187 C136.70944044 264.6470917 138.43129812 266.35644512 140.15332031 268.06567383 C145.15886428 273.04806591 150.08988769 278.04824635 154.66175842 283.43910217 C156.47606084 285.5552677 158.43645941 287.49887003 160.4375 289.4375 C161.64316121 290.60655669 162.83691398 291.78857794 164 293 C164 293.33 164 293.66 164 294 C129.88380437 298.94033726 129.88380437 298.94033726 118.2265625 291.18457031 C108.95278849 284.03513033 101.43855333 274.79129679 94.26208496 265.609375 C87.85464998 257.43879537 80.37052967 250.28405977 73 243 C70.70529026 240.73221143 68.41414624 238.46090292 66.125 236.1875 C65.61437012 235.68516846 65.10374023 235.18283691 64.57763672 234.6652832 C60.47973995 230.59459955 56.83316204 226.38075662 53 222 C42.605 211.605 42.605 211.605 32 201 C31.67 232.02 31.34 263.04 31 295 C20.77 295 10.54 295 0 295 C0 197.65 0 100.3 0 0 Z " fill="#020202" transform="translate(923,848)"/>
<path d="M0 0 C9.9 0 19.8 0 30 0 C30.02187378 5.6311084 30.02187378 5.6311084 30.04418945 11.37597656 C30.09461647 23.80517976 30.16107778 36.23425436 30.23571491 48.66333389 C30.28056092 56.19611455 30.32000094 63.72884912 30.34643555 71.26171875 C30.3695068 77.83216249 30.40300544 84.40245898 30.44870156 90.97278571 C30.47251166 94.44739655 30.49131994 97.92186266 30.49761391 101.39655304 C30.50485964 105.28829293 30.53539983 109.1796723 30.56762695 113.07128906 C30.56547432 114.77386368 30.56547432 114.77386368 30.5632782 116.51083374 C30.75103656 132.63407371 35.67097708 148.25577729 47 160 C59.12632649 171.14311083 71.96770723 175.68732258 88.53125 175.2109375 C104.69756768 174.22785061 117.85622092 169.17370321 129 157 C139.46491887 144.27114724 142.28855297 129.31723952 142.31884766 113.29833984 C142.32889328 112.06792969 142.3389389 110.83751953 142.34928894 109.56982422 C142.37471394 106.22751132 142.39166981 102.88536483 142.40471697 99.54299498 C142.4204483 96.03826906 142.44720608 92.53362686 142.4727478 89.02896118 C142.51935984 82.40654008 142.55618843 75.78410291 142.58942068 69.16160262 C142.627767 61.61611765 142.67714397 54.07071714 142.72740483 46.5253036 C142.83046301 31.0169242 142.91835181 15.50850914 143 0 C153.23 0 163.46 0 174 0 C174.04529103 15.79542041 174.08207266 31.59078866 174.10362434 47.38625526 C174.1139008 54.72172001 174.12789098 62.05714129 174.15087891 69.39257812 C174.17092474 75.79228827 174.18374276 82.19196691 174.18817699 88.59170759 C174.19076559 91.97473834 174.19677247 95.35767904 174.21146011 98.74068069 C174.31571169 125.74493963 174.31571169 125.74493963 172 137 C171.79848328 138.07930786 171.79848328 138.07930786 171.59289551 139.18041992 C168.54166433 154.4024457 161.47783326 167.62022871 151 179 C150.46117187 179.63035156 149.92234375 180.26070312 149.3671875 180.91015625 C141.23112135 189.88435987 129.32653645 196.1441578 118 200 C116.40865234 200.5878125 116.40865234 200.5878125 114.78515625 201.1875 C105.32524601 204.14564783 95.97340133 204.37196915 86.125 204.375 C85.45350922 204.37690338 84.78201843 204.37880676 84.09017944 204.38076782 C60.67482381 204.37326324 40.31710834 196.57290024 23.234375 180.35546875 C10.99497081 167.45274021 4.66094171 152.10507793 1 135 C0.67 134.01 0.34 133.02 0 132 C-0.09055683 130.21117742 -0.12195548 128.41911845 -0.12025452 126.62800598 C-0.12162918 125.51321365 -0.12300385 124.39842133 -0.12442017 123.24984741 C-0.12082489 122.02633575 -0.11722961 120.8028241 -0.11352539 119.54223633 C-0.11367142 118.25432693 -0.11381744 116.96641754 -0.1139679 115.63948059 C-0.11425513 112.10669914 -0.10837032 108.57395156 -0.10139394 105.04117799 C-0.09514812 101.34961255 -0.09455563 97.65804635 -0.09336853 93.96647644 C-0.09025884 86.97545691 -0.08205033 79.98445299 -0.07201904 72.99344033 C-0.06084667 65.0346368 -0.05534461 57.07583253 -0.05032361 49.11702311 C-0.03986742 32.74467149 -0.02152643 16.37234138 0 0 Z " fill="#010101" transform="translate(1564,942)"/>
<path d="M0 0 C10.23 0 20.46 0 31 0 C31 97.35 31 194.7 31 295 C20.77 295 10.54 295 0 295 C0 197.65 0 100.3 0 0 Z " fill="#030303" transform="translate(1215,848)"/>
<path d="M0 0 C1.16257324 0.00249756 2.32514648 0.00499512 3.52294922 0.00756836 C4.9823291 0.01667236 6.44170898 0.02577637 7.9453125 0.03515625 C12.6065625 0.05578125 17.2678125 0.07640625 22.0703125 0.09765625 C22.0703125 9.66765625 22.0703125 19.23765625 22.0703125 29.09765625 C19.97171875 29.13503906 17.873125 29.17242188 15.7109375 29.2109375 C13.63548466 29.25739937 11.56019489 29.308542 9.48486328 29.36010742 C8.0634181 29.39297413 6.64185436 29.42111948 5.22021484 29.4440918 C-14.03763894 29.76347046 -29.771955 34.44242875 -43.4921875 48.53515625 C-46.71908482 52.38783039 -48.97863463 56.63780509 -51.2421875 61.09765625 C-51.58000244 61.7620874 -51.91781738 62.42651855 -52.26586914 63.11108398 C-56.53478696 71.90282893 -57.23036328 79.90304948 -57.24853516 89.57226562 C-57.25858078 90.80238373 -57.2686264 92.03250183 -57.27897644 93.29989624 C-57.30445647 96.65059189 -57.32137929 100.00112045 -57.33440447 103.3518734 C-57.35010345 106.86194985 -57.37687185 110.37194204 -57.4024353 113.88195801 C-57.44910388 120.51861199 -57.48590541 127.15528203 -57.51910818 133.79201555 C-57.55741414 141.35196437 -57.60680192 148.91182832 -57.65709233 156.47170544 C-57.76023477 172.01363372 -57.8480897 187.55559765 -57.9296875 203.09765625 C-68.1596875 203.09765625 -78.3896875 203.09765625 -88.9296875 203.09765625 C-88.9296875 136.76765625 -88.9296875 70.43765625 -88.9296875 2.09765625 C-78.6996875 2.09765625 -68.4696875 2.09765625 -57.9296875 2.09765625 C-57.5996875 11.00765625 -57.2696875 19.91765625 -56.9296875 29.09765625 C-54.9496875 26.78765625 -52.9696875 24.47765625 -50.9296875 22.09765625 C-37.41551821 9.34713009 -18.75983916 -0.08300814 0 0 Z " fill="#030303" transform="translate(1885.9296875,939.90234375)"/>
<path d="M0 0 C10.23 0 20.46 0 31 0 C31 66.33 31 132.66 31 201 C20.77 201 10.54 201 0 201 C0 134.67 0 68.34 0 0 Z " fill="#030303" transform="translate(1121,942)"/>
<path d="M0 0 C0.99 0 1.98 0 3 0 C4.56781465 2.7358678 6.09937632 5.49041599 7.625 8.25 C8.07101562 9.02730469 8.51703125 9.80460938 8.9765625 10.60546875 C9.3890625 11.35957031 9.8015625 12.11367188 10.2265625 12.890625 C10.61408691 13.58188477 11.00161133 14.27314453 11.40087891 14.98535156 C12 17 12 17 11.27001953 19.01660156 C10.85091309 19.67112305 10.43180664 20.32564453 10 21 C9.40687012 21.93102539 9.40687012 21.93102539 8.80175781 22.88085938 C8.35670898 23.52861328 7.91166016 24.17636719 7.453125 24.84375 C6.94531494 25.58488037 6.43750488 26.32601074 5.91430664 27.08959961 C5.36508545 27.88503174 4.81586426 28.68046387 4.25 29.5 C3.67435303 30.33732666 3.09870605 31.17465332 2.50561523 32.03735352 C-3.35944773 40.55314909 -9.29139469 49.02202739 -15.23388672 57.48388672 C-18.16021864 61.65291862 -21.07978099 65.8266852 -24 70 C-25.16663389 71.66668961 -26.33330057 73.33335627 -27.5 75 C-28.0775 75.825 -28.655 76.65 -29.25 77.5 C-35.66666667 86.66666667 -42.08333333 95.83333333 -48.5 105 C-49.07766113 105.8252417 -49.65532227 106.6504834 -50.25048828 107.50073242 C-51.41548364 109.16498828 -52.5805226 110.82921361 -53.74560547 112.4934082 C-56.68820411 116.69670923 -59.63000904 120.90056181 -62.5703125 125.10546875 C-68.51694129 133.60810465 -74.47678902 142.10090706 -80.46582031 150.57373047 C-86.07585409 158.51479808 -91.64610235 166.48365319 -97.21777344 174.45166016 C-100.14376733 178.6354306 -103.0719831 182.81764524 -106 187 C-107.16667759 188.66665902 -108.33334425 190.33332569 -109.5 192 C-111.83333333 195.33333333 -114.16666667 198.66666667 -116.5 202 C-117.07782227 202.8254834 -117.65564453 203.6509668 -118.25097656 204.50146484 C-119.41430058 206.16330991 -120.57771164 207.82509405 -121.74121094 209.48681641 C-125.31521796 214.59153959 -128.88894037 219.69644913 -132.45092773 224.80957031 C-133.64075194 226.50622831 -134.84066424 228.19586076 -136.05102539 229.87792969 C-138.72734172 233.61364457 -141.21480736 237.26345264 -143.29296875 241.3671875 C-147.31888381 248.90179299 -147.31888381 248.90179299 -151 251 C-158.55074997 252.62699533 -166.38678069 251.86622025 -174 251 C-172.7473218 247.60763799 -171.32892465 244.78378804 -169.234375 241.83984375 C-168.40510498 240.6655481 -168.40510498 240.6655481 -167.55908203 239.4675293 C-166.96208496 238.63261963 -166.36508789 237.79770996 -165.75 236.9375 C-164.47123575 235.13029212 -163.1925932 233.32299812 -161.9140625 231.515625 C-161.26083008 230.59587891 -160.60759766 229.67613281 -159.93457031 228.72851562 C-156.97971135 224.56098612 -154.05216225 220.37450683 -151.125 216.1875 C-150.55579834 215.37434326 -149.98659668 214.56118652 -149.40014648 213.72338867 C-140.30238715 200.72387857 -131.2184594 187.71414736 -122.25 174.625 C-117.07455448 167.07474562 -111.79894831 159.59705794 -106.50732422 152.12792969 C-97.8907795 139.96372435 -89.3245967 127.76472226 -80.78222656 115.54833984 C-77.85623267 111.3645694 -74.9280169 107.18235476 -72 103 C-70.83332241 101.33334098 -69.66665575 99.66667431 -68.5 98 C-65 93 -65 93 -61.5 88 C-60.92233887 87.1747583 -60.34467773 86.3495166 -59.74951172 85.49926758 C-58.58451636 83.83501172 -57.4194774 82.17078639 -56.25439453 80.5065918 C-53.31179589 76.30329077 -50.36999096 72.09943819 -47.4296875 67.89453125 C-41.96823523 60.08561266 -36.50029543 52.2816211 -31 44.5 C-26.63355414 38.32108096 -22.28005616 32.1332339 -17.9375 25.9375 C-17.06001099 24.68888184 -17.06001099 24.68888184 -16.16479492 23.41503906 C-13.32395862 19.36315317 -10.51533466 15.29538459 -7.7734375 11.17578125 C-7.27207275 10.42756104 -6.77070801 9.67934082 -6.25415039 8.90844727 C-5.31479953 7.50204575 -4.38383977 6.08999195 -3.46264648 4.67163086 C-2.38402145 3.0611386 -1.20072961 1.52163257 0 0 Z " fill="#030303" transform="translate(595,896)"/>
<path d="M0 0 C11.88 0 23.76 0 36 0 C36 12.87 36 25.74 36 39 C24.12 39 12.24 39 0 39 C0 26.13 0 13.26 0 0 Z " fill="#000000" transform="translate(1918,1103)"/>
<path d="M0 0 C11.55 0 23.1 0 35 0 C35 12.21 35 24.42 35 37 C23.45 37 11.9 37 0 37 C0 24.79 0 12.58 0 0 Z " fill="#000000" transform="translate(1119,866)"/>
</svg>
